<svg width="170" height="45" viewBox="0 0 170 45" fill="none" xmlns="http://www.w3.org/2000/svg">
<g filter="url(#filter0_d_4_441)">
<path d="M19.7929 9.5957V9.59675C19.776 9.62583 16.2955 15.6297 11.9507 22.96C7.59532 30.3081 4 36.1911 4 36.1911L16.3315 36.137L16.3323 36.1369L16.3297 36.1464C22.3172 36.0304 27.7182 32.0939 29.3119 26.1458C29.8102 24.2864 29.8853 22.4147 29.5964 20.626C28.8043 15.3587 24.9149 11.075 19.7929 9.5957Z" fill="black"/>
<path d="M26.6074 5.80957V5.81061C26.5905 5.83969 23.1099 11.8435 18.7651 19.1739C14.4098 26.522 10.8145 32.4049 10.8145 32.4049L23.1459 32.3509L23.1467 32.3507L23.1442 32.3603C29.1317 32.2443 34.5326 28.3078 36.1264 22.3597C36.6246 20.5003 36.6998 18.6286 36.4108 16.8398C35.6187 11.5726 31.7294 7.28883 26.6074 5.80957Z" fill="#10F2C5"/>
<path d="M46.1851 30V11.7696H53.4843C54.8255 11.7696 55.9441 11.9684 56.8402 12.366C57.7363 12.7637 58.4098 13.3155 58.8609 14.0217C59.3119 14.722 59.5374 15.5291 59.5374 16.443C59.5374 17.1551 59.3949 17.7812 59.1101 18.3212C58.8252 18.8553 58.4336 19.2944 57.9351 19.6386C57.4425 19.9769 56.8788 20.2172 56.2438 20.3596V20.5377C56.9381 20.5673 57.5879 20.7632 58.1932 21.1252C58.8045 21.4872 59.3 21.9945 59.6798 22.6473C60.0596 23.2942 60.2495 24.0656 60.2495 24.9617C60.2495 25.929 60.0092 26.7925 59.5285 27.5521C59.0537 28.3057 58.3505 28.9021 57.4188 29.3413C56.4871 29.7804 55.3388 30 53.9739 30H46.1851ZM50.0394 26.8489H53.1817C54.2558 26.8489 55.0391 26.6441 55.5317 26.2346C56.0242 25.8192 56.2705 25.2673 56.2705 24.579C56.2705 24.0745 56.1489 23.6295 55.9055 23.2437C55.6622 22.858 55.3151 22.5553 54.8641 22.3358C54.419 22.1162 53.8879 22.0064 53.2707 22.0064H50.0394V26.8489ZM50.0394 19.3983H52.8968C53.425 19.3983 53.8938 19.3063 54.3033 19.1223C54.7187 18.9324 55.0451 18.6654 55.2824 18.3212C55.5257 17.977 55.6474 17.5645 55.6474 17.0839C55.6474 16.4252 55.413 15.894 54.9442 15.4905C54.4813 15.087 53.8226 14.8852 52.968 14.8852H50.0394V19.3983ZM62.6863 30V16.3272H66.4783V30H62.6863ZM64.5912 14.5647C64.0275 14.5647 63.5438 14.3778 63.1403 14.0039C62.7427 13.6241 62.5439 13.1702 62.5439 12.642C62.5439 12.1198 62.7427 11.6717 63.1403 11.2979C63.5438 10.9181 64.0275 10.7282 64.5912 10.7282C65.155 10.7282 65.6357 10.9181 66.0333 11.2979C66.4368 11.6717 66.6386 12.1198 66.6386 12.642C66.6386 13.1702 66.4368 13.6241 66.0333 14.0039C65.6357 14.3778 65.155 14.5647 64.5912 14.5647ZM80.8922 20.2261L77.4206 20.4397C77.3612 20.143 77.2336 19.876 77.0378 19.6386C76.842 19.3953 76.5838 19.2024 76.2634 19.06C75.9488 18.9116 75.572 18.8375 75.1329 18.8375C74.5454 18.8375 74.0498 18.9621 73.6463 19.2113C73.2428 19.4546 73.041 19.781 73.041 20.1905C73.041 20.5169 73.1716 20.7928 73.4327 21.0183C73.6938 21.2439 74.1418 21.4248 74.7768 21.5613L77.2514 22.0598C78.5807 22.3328 79.5718 22.7719 80.2245 23.3773C80.8773 23.9826 81.2037 24.7778 81.2037 25.7629C81.2037 26.659 80.9396 27.4453 80.4115 28.1218C79.8893 28.7983 79.1712 29.3265 78.2573 29.7062C77.3494 30.0801 76.3019 30.267 75.1151 30.267C73.3051 30.267 71.863 29.8902 70.7889 29.1366C69.7207 28.377 69.0947 27.3444 68.9107 26.0388L72.6404 25.843C72.7532 26.3949 73.0262 26.8162 73.4594 27.107C73.8926 27.3918 74.4474 27.5343 75.124 27.5343C75.7886 27.5343 76.3227 27.4067 76.7262 27.1515C77.1357 26.8904 77.3434 26.5551 77.3494 26.1456C77.3434 25.8014 77.198 25.5196 76.9132 25.3C76.6283 25.0745 76.1892 24.9024 75.5957 24.7837L73.2279 24.3119C71.8927 24.0449 70.8987 23.582 70.2459 22.9233C69.5991 22.2646 69.2757 21.4248 69.2757 20.4041C69.2757 19.5259 69.513 18.7692 69.9878 18.1342C70.4685 17.4993 71.142 17.0097 72.0084 16.6655C72.8808 16.3213 73.9015 16.1492 75.0706 16.1492C76.7975 16.1492 78.1564 16.5142 79.1475 17.2441C80.1444 17.974 80.726 18.968 80.8922 20.2261ZM90.8641 16.3272V19.1757H82.6302V16.3272H90.8641ZM84.4995 13.0515H88.2916V25.7985C88.2916 26.1486 88.345 26.4216 88.4518 26.6174C88.5586 26.8073 88.707 26.9408 88.8969 27.018C89.0927 27.0951 89.3182 27.1337 89.5734 27.1337C89.7514 27.1337 89.9295 27.1189 90.1075 27.0892C90.2855 27.0536 90.422 27.0269 90.517 27.0091L91.1134 29.8309C90.9235 29.8902 90.6564 29.9585 90.3122 30.0356C89.968 30.1187 89.5497 30.1691 89.0571 30.1869C88.1432 30.2225 87.3421 30.1009 86.6537 29.822C85.9712 29.5431 85.4401 29.1098 85.0603 28.5223C84.6805 27.9348 84.4936 27.193 84.4995 26.297V13.0515ZM93.3343 30V16.3272H97.0106V18.7128H97.1531C97.4023 17.8642 97.8207 17.2233 98.4082 16.7901C98.9957 16.351 99.6722 16.1314 100.438 16.1314C100.628 16.1314 100.832 16.1433 101.052 16.167C101.271 16.1907 101.464 16.2234 101.631 16.2649V19.6297C101.452 19.5763 101.206 19.5288 100.892 19.4873C100.577 19.4457 100.289 19.425 100.028 19.425C99.4704 19.425 98.9719 19.5466 98.5328 19.7899C98.0996 20.0273 97.7554 20.3596 97.5002 20.7869C97.251 21.2142 97.1263 21.7067 97.1263 22.2646V30H93.3343ZM109.132 30.267C107.75 30.267 106.554 29.9733 105.545 29.3858C104.542 28.7924 103.768 27.9675 103.222 26.9112C102.676 25.8489 102.403 24.6175 102.403 23.217C102.403 21.8046 102.676 20.5703 103.222 19.514C103.768 18.4517 104.542 17.6269 105.545 17.0394C106.554 16.4459 107.75 16.1492 109.132 16.1492C110.515 16.1492 111.708 16.4459 112.711 17.0394C113.72 17.6269 114.497 18.4517 115.043 19.514C115.589 20.5703 115.862 21.8046 115.862 23.217C115.862 24.6175 115.589 25.8489 115.043 26.9112C114.497 27.9675 113.72 28.7924 112.711 29.3858C111.708 29.9733 110.515 30.267 109.132 30.267ZM109.15 27.3295C109.779 27.3295 110.304 27.1515 110.726 26.7954C111.147 26.4334 111.465 25.9409 111.678 25.3178C111.898 24.6947 112.007 23.9855 112.007 23.1903C112.007 22.3951 111.898 21.686 111.678 21.0629C111.465 20.4397 111.147 19.9472 110.726 19.5852C110.304 19.2232 109.779 19.0422 109.15 19.0422C108.515 19.0422 107.981 19.2232 107.548 19.5852C107.121 19.9472 106.797 20.4397 106.578 21.0629C106.364 21.686 106.257 22.3951 106.257 23.1903C106.257 23.9855 106.364 24.6947 106.578 25.3178C106.797 25.9409 107.121 26.4334 107.548 26.7954C107.981 27.1515 108.515 27.3295 109.15 27.3295ZM118.399 30V11.7696H125.698C127.039 11.7696 128.158 11.9684 129.054 12.366C129.95 12.7637 130.624 13.3155 131.075 14.0217C131.526 14.722 131.751 15.5291 131.751 16.443C131.751 17.1551 131.609 17.7812 131.324 18.3212C131.039 18.8553 130.647 19.2944 130.149 19.6386C129.656 19.9769 129.093 20.2172 128.458 20.3596V20.5377C129.152 20.5673 129.802 20.7632 130.407 21.1252C131.018 21.4872 131.514 21.9945 131.894 22.6473C132.273 23.2942 132.463 24.0656 132.463 24.9617C132.463 25.929 132.223 26.7925 131.742 27.5521C131.267 28.3057 130.564 28.9021 129.633 29.3413C128.701 29.7804 127.553 30 126.188 30H118.399ZM122.253 26.8489H125.395C126.47 26.8489 127.253 26.6441 127.745 26.2346C128.238 25.8192 128.484 25.2673 128.484 24.579C128.484 24.0745 128.363 23.6295 128.119 23.2437C127.876 22.858 127.529 22.5553 127.078 22.3358C126.633 22.1162 126.102 22.0064 125.484 22.0064H122.253V26.8489ZM122.253 19.3983H125.111C125.639 19.3983 126.108 19.3063 126.517 19.1223C126.932 18.9324 127.259 18.6654 127.496 18.3212C127.739 17.977 127.861 17.5645 127.861 17.0839C127.861 16.4252 127.627 15.894 127.158 15.4905C126.695 15.087 126.036 14.8852 125.182 14.8852H122.253V19.3983ZM134.9 30V16.3272H138.692V30H134.9ZM136.805 14.5647C136.241 14.5647 135.758 14.3778 135.354 14.0039C134.956 13.6241 134.758 13.1702 134.758 12.642C134.758 12.1198 134.956 11.6717 135.354 11.2979C135.758 10.9181 136.241 10.7282 136.805 10.7282C137.369 10.7282 137.849 10.9181 138.247 11.2979C138.651 11.6717 138.852 12.1198 138.852 12.642C138.852 13.1702 138.651 13.6241 138.247 14.0039C137.849 14.3778 137.369 14.5647 136.805 14.5647ZM149.002 16.3272V19.1757H140.768V16.3272H149.002ZM142.638 13.0515H146.43V25.7985C146.43 26.1486 146.483 26.4216 146.59 26.6174C146.697 26.8073 146.845 26.9408 147.035 27.018C147.231 27.0951 147.456 27.1337 147.712 27.1337C147.89 27.1337 148.068 27.1189 148.246 27.0892C148.424 27.0536 148.56 27.0269 148.655 27.0091L149.252 29.8309C149.062 29.8902 148.795 29.9585 148.45 30.0356C148.106 30.1187 147.688 30.1691 147.195 30.1869C146.281 30.2225 145.48 30.1009 144.792 29.822C144.109 29.5431 143.578 29.1098 143.198 28.5223C142.819 27.9348 142.632 27.193 142.638 26.297V13.0515ZM157.557 30.267C156.15 30.267 154.94 29.9822 153.925 29.4125C152.916 28.8369 152.139 28.0239 151.593 26.9735C151.047 25.9172 150.774 24.668 150.774 23.2259C150.774 21.8195 151.047 20.5851 151.593 19.5229C152.139 18.4606 152.907 17.6328 153.898 17.0394C154.895 16.4459 156.064 16.1492 157.405 16.1492C158.307 16.1492 159.147 16.2946 159.924 16.5854C160.708 16.8702 161.39 17.3005 161.972 17.8761C162.559 18.4517 163.016 19.1757 163.343 20.0481C163.669 20.9145 163.832 21.9293 163.832 23.0924V24.1339H152.287V21.7839H160.263C160.263 21.2379 160.144 20.7543 159.907 20.3329C159.669 19.9116 159.34 19.5822 158.919 19.3449C158.503 19.1015 158.02 18.9799 157.468 18.9799C156.892 18.9799 156.382 19.1134 155.937 19.3805C155.497 19.6416 155.153 19.9947 154.904 20.4397C154.655 20.8789 154.527 21.3685 154.521 21.9085V24.1428C154.521 24.8193 154.646 25.4038 154.895 25.8964C155.15 26.3889 155.509 26.7687 155.972 27.0358C156.435 27.3028 156.984 27.4364 157.619 27.4364C158.04 27.4364 158.426 27.377 158.776 27.2583C159.126 27.1396 159.426 26.9616 159.675 26.7242C159.924 26.4869 160.114 26.1961 160.245 25.8519L163.752 26.0833C163.574 26.926 163.209 27.6619 162.657 28.2909C162.111 28.914 161.405 29.4006 160.539 29.7508C159.678 30.0949 158.684 30.267 157.557 30.267Z" fill="black"/>
</g>
<defs>
<filter id="filter0_d_4_441" x="0" y="0.5" width="169.601" height="49" filterUnits="userSpaceOnUse" color-interpolation-filters="sRGB">
<feFlood flood-opacity="0" result="BackgroundImageFix"/>
<feColorMatrix in="SourceAlpha" type="matrix" values="0 0 0 0 0 0 0 0 0 0 0 0 0 0 0 0 0 0 127 0" result="hardAlpha"/>
<feOffset dy="4"/>
<feGaussianBlur stdDeviation="2"/>
<feComposite in2="hardAlpha" operator="out"/>
<feColorMatrix type="matrix" values="0 0 0 0 0 0 0 0 0 0 0 0 0 0 0 0 0 0 0.25 0"/>
<feBlend mode="normal" in2="BackgroundImageFix" result="effect1_dropShadow_4_441"/>
<feBlend mode="normal" in="SourceGraphic" in2="effect1_dropShadow_4_441" result="shape"/>
</filter>
</defs>
</svg>
