<svg width="34" height="32" viewBox="0 0 34 32" fill="none" xmlns="http://www.w3.org/2000/svg">
<path d="M16.4921 4.5957V4.59675C16.4753 4.62583 12.9947 10.6297 8.64989 17.96C4.29454 25.3081 0.699219 31.1911 0.699219 31.1911L13.0307 31.137L13.0315 31.1369L13.0289 31.1464C19.0164 31.0304 24.4174 27.0939 26.0112 21.1458C26.5094 19.2864 26.5846 17.4147 26.2956 15.626C25.5035 10.3587 21.6142 6.07496 16.4921 4.5957Z" fill="black"/>
<path d="M23.3066 0.80957V0.810614C23.2897 0.839693 19.8091 6.84355 15.4643 14.1739C11.109 21.522 7.51367 27.4049 7.51367 27.4049L19.8451 27.3509L19.8459 27.3507L19.8434 27.3603C25.8309 27.2443 31.2318 23.3078 32.8256 17.3597C33.3238 15.5003 33.399 13.6286 33.11 11.8398C32.318 6.5726 28.4286 2.28883 23.3066 0.80957Z" fill="#10F2C5"/>
</svg>
